<?xml version="1.0" standalone="no"?>
<!DOCTYPE svg PUBLIC "-//W3C//DTD SVG 20010904//EN"
 "http://www.w3.org/TR/2001/REC-SVG-20010904/DTD/svg10.dtd">
<svg version="1.0" xmlns="http://www.w3.org/2000/svg"
 width="300.000000pt" height="300.000000pt" viewBox="0 0 300.000000 300.000000"
 preserveAspectRatio="xMidYMid meet">
<metadata>
Created by potrace 1.10, written by Peter Selinger 2001-2011
</metadata>
<g transform="translate(0.000000,300.000000) scale(0.100000,-0.100000)"
fill="#000000" stroke="none">
<path d="M290 2035 c0 0 -1 -233 -3 -518 l-2 -517 68 0 68 0 -3 235 -3 235
248 0 247 0 0 60 0 60 -245 0 -245 0 0 165 0 165 280 0 280 0 0 58 0 57 -345
0 c-190 0 -345 0 -345 0z m638 -57 c-4 -10 -67 -14 -255 -18 -229 -5 -253 -7
-272 -24 -20 -18 -21 -29 -21 -181 0 -123 3 -166 14 -181 13 -18 31 -19 238
-24 189 -4 223 -7 223 -20 0 -13 -32 -15 -215 -18 -283 -3 -258 20 -262 -252
-2 -115 -6 -212 -10 -215 -4 -4 -14 -5 -23 -2 -13 6 -15 61 -15 470 0 255 3
467 7 470 3 4 139 7 301 7 230 0 293 -3 290 -12z"/>
<path d="M2590 1518 l0 -518 65 0 65 0 0 518 0 517 -65 0 -65 0 0 -517z m85
-3 c0 -463 0 -470 -20 -470 -20 0 -20 8 -23 473 l-2 473 22 -3 23 -3 0 -470z"/>
<path d="M1010 1390 l0 -50 720 0 720 0 0 50 0 50 -720 0 -720 0 0 -50z m1380
0 c0 -7 -225 -10 -655 -10 -430 0 -655 3 -655 10 0 7 225 10 655 10 430 0 655
-3 655 -10z"/>
</g>
</svg>
